<mxfile host="Electron" modified="2024-08-12T06:53:35.991Z" agent="Mozilla/5.0 (Windows NT 10.0; Win64; x64) AppleWebKit/537.36 (KHTML, like Gecko) draw.io/24.1.0 Chrome/120.0.6099.109 Electron/28.1.0 Safari/537.36" etag="wFncpYBTZGD1vZBoPPvo" version="24.1.0" type="device" pages="2">
  <diagram name="HashCode" id="coGf-SwIpcZmSCLazqnX">
    <mxGraphModel dx="1434" dy="836" grid="1" gridSize="10" guides="1" tooltips="1" connect="1" arrows="1" fold="1" page="1" pageScale="1" pageWidth="827" pageHeight="1169" math="0" shadow="0">
      <root>
        <mxCell id="0" />
        <mxCell id="1" parent="0" />
        <mxCell id="WTFRDLYUk2QFJGsVZOeS-10" style="edgeStyle=orthogonalEdgeStyle;rounded=0;orthogonalLoop=1;jettySize=auto;html=1;exitX=1;exitY=0.5;exitDx=0;exitDy=0;" parent="1" source="WTFRDLYUk2QFJGsVZOeS-1" target="WTFRDLYUk2QFJGsVZOeS-2" edge="1">
          <mxGeometry relative="1" as="geometry" />
        </mxCell>
        <mxCell id="WTFRDLYUk2QFJGsVZOeS-1" value="key.hashcode()" style="rounded=1;whiteSpace=wrap;html=1;" parent="1" vertex="1">
          <mxGeometry x="50" y="210" width="120" height="40" as="geometry" />
        </mxCell>
        <mxCell id="WTFRDLYUk2QFJGsVZOeS-11" style="edgeStyle=orthogonalEdgeStyle;rounded=0;orthogonalLoop=1;jettySize=auto;html=1;exitX=1;exitY=0.5;exitDx=0;exitDy=0;entryX=0;entryY=0.5;entryDx=0;entryDy=0;" parent="1" source="WTFRDLYUk2QFJGsVZOeS-2" target="WTFRDLYUk2QFJGsVZOeS-6" edge="1">
          <mxGeometry relative="1" as="geometry" />
        </mxCell>
        <mxCell id="WTFRDLYUk2QFJGsVZOeS-2" value="扰动函数" style="rounded=1;whiteSpace=wrap;html=1;" parent="1" vertex="1">
          <mxGeometry x="200" y="210" width="120" height="40" as="geometry" />
        </mxCell>
        <mxCell id="WTFRDLYUk2QFJGsVZOeS-4" value="HashMap：key" style="text;html=1;align=center;verticalAlign=middle;whiteSpace=wrap;rounded=0;" parent="1" vertex="1">
          <mxGeometry y="30" width="130" height="30" as="geometry" />
        </mxCell>
        <mxCell id="WTFRDLYUk2QFJGsVZOeS-29" style="edgeStyle=orthogonalEdgeStyle;rounded=0;orthogonalLoop=1;jettySize=auto;html=1;exitX=1;exitY=0.5;exitDx=0;exitDy=0;entryX=0;entryY=0.5;entryDx=0;entryDy=0;" parent="1" source="WTFRDLYUk2QFJGsVZOeS-6" target="WTFRDLYUk2QFJGsVZOeS-13" edge="1">
          <mxGeometry relative="1" as="geometry" />
        </mxCell>
        <mxCell id="WTFRDLYUk2QFJGsVZOeS-6" value="&amp;amp;(map.size) 求模" style="rounded=1;whiteSpace=wrap;html=1;" parent="1" vertex="1">
          <mxGeometry x="364" y="210" width="120" height="40" as="geometry" />
        </mxCell>
        <mxCell id="WTFRDLYUk2QFJGsVZOeS-13" value="存放在对应 tab[Idex]" style="rounded=1;whiteSpace=wrap;html=1;" parent="1" vertex="1">
          <mxGeometry x="520" y="210" width="120" height="40" as="geometry" />
        </mxCell>
        <mxCell id="WTFRDLYUk2QFJGsVZOeS-25" style="edgeStyle=orthogonalEdgeStyle;rounded=0;orthogonalLoop=1;jettySize=auto;html=1;exitX=0.5;exitY=1;exitDx=0;exitDy=0;" parent="1" source="WTFRDLYUk2QFJGsVZOeS-15" target="WTFRDLYUk2QFJGsVZOeS-19" edge="1">
          <mxGeometry relative="1" as="geometry" />
        </mxCell>
        <mxCell id="WTFRDLYUk2QFJGsVZOeS-15" value="扩容因子 0.75" style="rounded=1;whiteSpace=wrap;html=1;" parent="1" vertex="1">
          <mxGeometry x="244" y="30" width="120" height="40" as="geometry" />
        </mxCell>
        <mxCell id="WTFRDLYUk2QFJGsVZOeS-17" style="edgeStyle=orthogonalEdgeStyle;rounded=0;orthogonalLoop=1;jettySize=auto;html=1;exitX=1;exitY=0.5;exitDx=0;exitDy=0;entryX=-0.004;entryY=0.395;entryDx=0;entryDy=0;entryPerimeter=0;" parent="1" source="WTFRDLYUk2QFJGsVZOeS-4" target="WTFRDLYUk2QFJGsVZOeS-15" edge="1">
          <mxGeometry relative="1" as="geometry" />
        </mxCell>
        <mxCell id="WTFRDLYUk2QFJGsVZOeS-18" value="JDK 1.7 重新 Hash计算" style="rounded=1;whiteSpace=wrap;html=1;fillColor=#ffe6cc;strokeColor=#d79b00;" parent="1" vertex="1">
          <mxGeometry x="130" y="110" width="140" height="40" as="geometry" />
        </mxCell>
        <mxCell id="WTFRDLYUk2QFJGsVZOeS-21" style="edgeStyle=orthogonalEdgeStyle;rounded=0;orthogonalLoop=1;jettySize=auto;html=1;exitX=1;exitY=0.5;exitDx=0;exitDy=0;entryX=0;entryY=0.75;entryDx=0;entryDy=0;" parent="1" source="WTFRDLYUk2QFJGsVZOeS-19" target="WTFRDLYUk2QFJGsVZOeS-20" edge="1">
          <mxGeometry relative="1" as="geometry" />
        </mxCell>
        <mxCell id="WTFRDLYUk2QFJGsVZOeS-23" style="edgeStyle=orthogonalEdgeStyle;rounded=0;orthogonalLoop=1;jettySize=auto;html=1;exitX=1;exitY=0.5;exitDx=0;exitDy=0;entryX=0;entryY=0.5;entryDx=0;entryDy=0;" parent="1" source="WTFRDLYUk2QFJGsVZOeS-19" target="WTFRDLYUk2QFJGsVZOeS-22" edge="1">
          <mxGeometry relative="1" as="geometry" />
        </mxCell>
        <mxCell id="WTFRDLYUk2QFJGsVZOeS-19" value="JDK 1.8 无需从新计算" style="rounded=1;whiteSpace=wrap;html=1;fillColor=#d5e8d4;strokeColor=#82b366;" parent="1" vertex="1">
          <mxGeometry x="310" y="110" width="140" height="40" as="geometry" />
        </mxCell>
        <mxCell id="WTFRDLYUk2QFJGsVZOeS-20" value="e.hash&amp;amp;oldCap == 1&lt;div&gt;原位置+原容量&lt;/div&gt;" style="rounded=1;whiteSpace=wrap;html=1;fillColor=#d5e8d4;strokeColor=#82b366;" parent="1" vertex="1">
          <mxGeometry x="500" y="60" width="120" height="40" as="geometry" />
        </mxCell>
        <mxCell id="WTFRDLYUk2QFJGsVZOeS-22" value="e.hash&amp;amp;oldCap == 0&lt;div&gt;原位置&lt;/div&gt;" style="rounded=1;whiteSpace=wrap;html=1;fillColor=#d5e8d4;strokeColor=#82b366;" parent="1" vertex="1">
          <mxGeometry x="500" y="150" width="120" height="40" as="geometry" />
        </mxCell>
        <mxCell id="WTFRDLYUk2QFJGsVZOeS-24" style="edgeStyle=orthogonalEdgeStyle;rounded=0;orthogonalLoop=1;jettySize=auto;html=1;exitX=0.5;exitY=1;exitDx=0;exitDy=0;entryX=0.465;entryY=0.053;entryDx=0;entryDy=0;entryPerimeter=0;" parent="1" source="WTFRDLYUk2QFJGsVZOeS-15" target="WTFRDLYUk2QFJGsVZOeS-18" edge="1">
          <mxGeometry relative="1" as="geometry" />
        </mxCell>
        <mxCell id="WTFRDLYUk2QFJGsVZOeS-26" style="edgeStyle=orthogonalEdgeStyle;rounded=0;orthogonalLoop=1;jettySize=auto;html=1;exitX=0.5;exitY=1;exitDx=0;exitDy=0;entryX=0.122;entryY=0;entryDx=0;entryDy=0;entryPerimeter=0;" parent="1" source="WTFRDLYUk2QFJGsVZOeS-4" target="WTFRDLYUk2QFJGsVZOeS-1" edge="1">
          <mxGeometry relative="1" as="geometry" />
        </mxCell>
        <mxCell id="WTFRDLYUk2QFJGsVZOeS-27" style="edgeStyle=orthogonalEdgeStyle;rounded=0;orthogonalLoop=1;jettySize=auto;html=1;exitX=0;exitY=0.5;exitDx=0;exitDy=0;entryX=0.128;entryY=0.053;entryDx=0;entryDy=0;entryPerimeter=0;" parent="1" source="WTFRDLYUk2QFJGsVZOeS-18" target="WTFRDLYUk2QFJGsVZOeS-1" edge="1">
          <mxGeometry relative="1" as="geometry" />
        </mxCell>
      </root>
    </mxGraphModel>
  </diagram>
  <diagram id="MA43s9fybkEDR8R1VmYW" name="红黑树">
    <mxGraphModel dx="819" dy="478" grid="1" gridSize="10" guides="1" tooltips="1" connect="1" arrows="1" fold="1" page="1" pageScale="1" pageWidth="827" pageHeight="1169" math="0" shadow="0">
      <root>
        <mxCell id="0" />
        <mxCell id="1" parent="0" />
        <mxCell id="YjHZfII7TZEtdzkOAx2F-1" value="3" style="ellipse;whiteSpace=wrap;html=1;aspect=fixed;fillColor=#fff2cc;strokeColor=#d6b656;" parent="1" vertex="1">
          <mxGeometry x="200" y="250" width="30" height="30" as="geometry" />
        </mxCell>
        <mxCell id="YjHZfII7TZEtdzkOAx2F-9" style="rounded=0;orthogonalLoop=1;jettySize=auto;html=1;exitX=0;exitY=1;exitDx=0;exitDy=0;entryX=1;entryY=0;entryDx=0;entryDy=0;" parent="1" source="YjHZfII7TZEtdzkOAx2F-2" target="YjHZfII7TZEtdzkOAx2F-4" edge="1">
          <mxGeometry relative="1" as="geometry" />
        </mxCell>
        <mxCell id="YjHZfII7TZEtdzkOAx2F-2" value="2" style="ellipse;whiteSpace=wrap;html=1;aspect=fixed;fillColor=#fff2cc;strokeColor=#d6b656;" parent="1" vertex="1">
          <mxGeometry x="180" y="200" width="30" height="30" as="geometry" />
        </mxCell>
        <mxCell id="YjHZfII7TZEtdzkOAx2F-7" style="rounded=0;orthogonalLoop=1;jettySize=auto;html=1;exitX=0;exitY=1;exitDx=0;exitDy=0;" parent="1" source="YjHZfII7TZEtdzkOAx2F-3" target="YjHZfII7TZEtdzkOAx2F-2" edge="1">
          <mxGeometry relative="1" as="geometry" />
        </mxCell>
        <mxCell id="YjHZfII7TZEtdzkOAx2F-8" style="rounded=0;orthogonalLoop=1;jettySize=auto;html=1;exitX=1;exitY=1;exitDx=0;exitDy=0;entryX=0;entryY=0;entryDx=0;entryDy=0;" parent="1" source="YjHZfII7TZEtdzkOAx2F-3" target="YjHZfII7TZEtdzkOAx2F-5" edge="1">
          <mxGeometry relative="1" as="geometry" />
        </mxCell>
        <mxCell id="YjHZfII7TZEtdzkOAx2F-3" value="4" style="ellipse;whiteSpace=wrap;html=1;aspect=fixed;fillColor=#fff2cc;strokeColor=#d6b656;" parent="1" vertex="1">
          <mxGeometry x="220" y="160" width="30" height="30" as="geometry" />
        </mxCell>
        <mxCell id="YjHZfII7TZEtdzkOAx2F-4" value="1" style="ellipse;whiteSpace=wrap;html=1;aspect=fixed;fillColor=#fff2cc;strokeColor=#d6b656;" parent="1" vertex="1">
          <mxGeometry x="150" y="250" width="30" height="30" as="geometry" />
        </mxCell>
        <mxCell id="YjHZfII7TZEtdzkOAx2F-5" value="5" style="ellipse;whiteSpace=wrap;html=1;aspect=fixed;fillColor=#fff2cc;strokeColor=#d6b656;" parent="1" vertex="1">
          <mxGeometry x="250" y="200" width="30" height="30" as="geometry" />
        </mxCell>
        <mxCell id="YjHZfII7TZEtdzkOAx2F-6" value="6" style="ellipse;whiteSpace=wrap;html=1;aspect=fixed;fillColor=#fff2cc;strokeColor=#d6b656;" parent="1" vertex="1">
          <mxGeometry x="270" y="250" width="30" height="30" as="geometry" />
        </mxCell>
        <mxCell id="YjHZfII7TZEtdzkOAx2F-10" style="rounded=0;orthogonalLoop=1;jettySize=auto;html=1;exitX=1;exitY=1;exitDx=0;exitDy=0;entryX=0.376;entryY=-0.019;entryDx=0;entryDy=0;entryPerimeter=0;" parent="1" source="YjHZfII7TZEtdzkOAx2F-2" target="YjHZfII7TZEtdzkOAx2F-1" edge="1">
          <mxGeometry relative="1" as="geometry" />
        </mxCell>
        <mxCell id="YjHZfII7TZEtdzkOAx2F-11" style="rounded=0;orthogonalLoop=1;jettySize=auto;html=1;exitX=1;exitY=1;exitDx=0;exitDy=0;entryX=0.333;entryY=0;entryDx=0;entryDy=0;entryPerimeter=0;" parent="1" source="YjHZfII7TZEtdzkOAx2F-5" target="YjHZfII7TZEtdzkOAx2F-6" edge="1">
          <mxGeometry relative="1" as="geometry" />
        </mxCell>
        <mxCell id="YjHZfII7TZEtdzkOAx2F-12" value="" style="shape=flexArrow;endArrow=classic;html=1;rounded=0;" parent="1" edge="1">
          <mxGeometry width="50" height="50" relative="1" as="geometry">
            <mxPoint x="310" y="220" as="sourcePoint" />
            <mxPoint x="370" y="220" as="targetPoint" />
          </mxGeometry>
        </mxCell>
        <mxCell id="YjHZfII7TZEtdzkOAx2F-13" value="二叉搜索树" style="text;html=1;align=center;verticalAlign=middle;resizable=0;points=[];autosize=1;strokeColor=none;fillColor=none;" parent="1" vertex="1">
          <mxGeometry x="190" y="110" width="80" height="30" as="geometry" />
        </mxCell>
        <mxCell id="YjHZfII7TZEtdzkOAx2F-14" value="退化" style="text;html=1;align=center;verticalAlign=middle;resizable=0;points=[];autosize=1;strokeColor=none;fillColor=none;" parent="1" vertex="1">
          <mxGeometry x="315" y="178" width="50" height="30" as="geometry" />
        </mxCell>
        <mxCell id="YjHZfII7TZEtdzkOAx2F-15" value="1" style="ellipse;whiteSpace=wrap;html=1;aspect=fixed;fillColor=#fff2cc;strokeColor=#d6b656;" parent="1" vertex="1">
          <mxGeometry x="416" y="160" width="30" height="30" as="geometry" />
        </mxCell>
        <mxCell id="YjHZfII7TZEtdzkOAx2F-22" style="edgeStyle=orthogonalEdgeStyle;rounded=0;orthogonalLoop=1;jettySize=auto;html=1;exitX=1;exitY=1;exitDx=0;exitDy=0;entryX=0;entryY=0;entryDx=0;entryDy=0;curved=1;" parent="1" source="YjHZfII7TZEtdzkOAx2F-16" target="YjHZfII7TZEtdzkOAx2F-17" edge="1">
          <mxGeometry relative="1" as="geometry" />
        </mxCell>
        <mxCell id="YjHZfII7TZEtdzkOAx2F-16" value="2" style="ellipse;whiteSpace=wrap;html=1;aspect=fixed;fillColor=#fff2cc;strokeColor=#d6b656;" parent="1" vertex="1">
          <mxGeometry x="446" y="200" width="30" height="30" as="geometry" />
        </mxCell>
        <mxCell id="YjHZfII7TZEtdzkOAx2F-17" value="3" style="ellipse;whiteSpace=wrap;html=1;aspect=fixed;fillColor=#fff2cc;strokeColor=#d6b656;" parent="1" vertex="1">
          <mxGeometry x="476" y="230" width="30" height="30" as="geometry" />
        </mxCell>
        <mxCell id="YjHZfII7TZEtdzkOAx2F-18" value="4" style="ellipse;whiteSpace=wrap;html=1;aspect=fixed;fillColor=#fff2cc;strokeColor=#d6b656;" parent="1" vertex="1">
          <mxGeometry x="496" y="270" width="30" height="30" as="geometry" />
        </mxCell>
        <mxCell id="YjHZfII7TZEtdzkOAx2F-25" style="edgeStyle=orthogonalEdgeStyle;rounded=0;orthogonalLoop=1;jettySize=auto;html=1;exitX=1;exitY=1;exitDx=0;exitDy=0;entryX=0;entryY=0;entryDx=0;entryDy=0;curved=1;" parent="1" source="YjHZfII7TZEtdzkOAx2F-19" target="YjHZfII7TZEtdzkOAx2F-20" edge="1">
          <mxGeometry relative="1" as="geometry" />
        </mxCell>
        <mxCell id="YjHZfII7TZEtdzkOAx2F-19" value="5" style="ellipse;whiteSpace=wrap;html=1;aspect=fixed;fillColor=#fff2cc;strokeColor=#d6b656;" parent="1" vertex="1">
          <mxGeometry x="526" y="300" width="30" height="30" as="geometry" />
        </mxCell>
        <mxCell id="YjHZfII7TZEtdzkOAx2F-20" value="6" style="ellipse;whiteSpace=wrap;html=1;aspect=fixed;fillColor=#fff2cc;strokeColor=#d6b656;" parent="1" vertex="1">
          <mxGeometry x="556" y="340" width="30" height="30" as="geometry" />
        </mxCell>
        <mxCell id="YjHZfII7TZEtdzkOAx2F-21" style="edgeStyle=orthogonalEdgeStyle;rounded=0;orthogonalLoop=1;jettySize=auto;html=1;exitX=1;exitY=1;exitDx=0;exitDy=0;entryX=0.386;entryY=0.01;entryDx=0;entryDy=0;entryPerimeter=0;curved=1;" parent="1" source="YjHZfII7TZEtdzkOAx2F-15" target="YjHZfII7TZEtdzkOAx2F-16" edge="1">
          <mxGeometry relative="1" as="geometry" />
        </mxCell>
        <mxCell id="YjHZfII7TZEtdzkOAx2F-23" style="edgeStyle=orthogonalEdgeStyle;rounded=0;orthogonalLoop=1;jettySize=auto;html=1;exitX=1;exitY=1;exitDx=0;exitDy=0;entryX=0.262;entryY=0.038;entryDx=0;entryDy=0;entryPerimeter=0;curved=1;" parent="1" source="YjHZfII7TZEtdzkOAx2F-17" target="YjHZfII7TZEtdzkOAx2F-18" edge="1">
          <mxGeometry relative="1" as="geometry" />
        </mxCell>
        <mxCell id="YjHZfII7TZEtdzkOAx2F-24" style="edgeStyle=orthogonalEdgeStyle;rounded=0;orthogonalLoop=1;jettySize=auto;html=1;exitX=1;exitY=1;exitDx=0;exitDy=0;entryX=0.133;entryY=0;entryDx=0;entryDy=0;entryPerimeter=0;curved=1;" parent="1" source="YjHZfII7TZEtdzkOAx2F-18" target="YjHZfII7TZEtdzkOAx2F-19" edge="1">
          <mxGeometry relative="1" as="geometry" />
        </mxCell>
        <mxCell id="YjHZfII7TZEtdzkOAx2F-26" value="链表" style="text;html=1;align=center;verticalAlign=middle;resizable=0;points=[];autosize=1;strokeColor=none;fillColor=none;" parent="1" vertex="1">
          <mxGeometry x="406" y="110" width="50" height="30" as="geometry" />
        </mxCell>
        <mxCell id="YjHZfII7TZEtdzkOAx2F-27" value="&lt;font color=&quot;#bab8ff&quot;&gt;小木蕊&lt;/font&gt;" style="text;html=1;align=center;verticalAlign=middle;whiteSpace=wrap;rounded=0;" parent="1" vertex="1">
          <mxGeometry x="160" y="310" width="60" height="30" as="geometry" />
        </mxCell>
        <mxCell id="_BTrtU_r2olgrIHIZXSj-14" value="" style="shape=flexArrow;endArrow=classic;html=1;rounded=0;" parent="1" edge="1">
          <mxGeometry width="50" height="50" relative="1" as="geometry">
            <mxPoint x="350" y="490" as="sourcePoint" />
            <mxPoint x="430" y="490" as="targetPoint" />
          </mxGeometry>
        </mxCell>
        <mxCell id="_BTrtU_r2olgrIHIZXSj-15" value="插入 9" style="text;html=1;align=center;verticalAlign=middle;resizable=0;points=[];autosize=1;strokeColor=none;fillColor=none;" parent="1" vertex="1">
          <mxGeometry x="350" y="438" width="60" height="30" as="geometry" />
        </mxCell>
        <mxCell id="_BTrtU_r2olgrIHIZXSj-22" value="5" style="ellipse;whiteSpace=wrap;html=1;aspect=fixed;fillColor=#fff2cc;strokeColor=#d6b656;" parent="1" vertex="1">
          <mxGeometry x="466" y="490" width="30" height="30" as="geometry" />
        </mxCell>
        <mxCell id="_BTrtU_r2olgrIHIZXSj-31" style="edgeStyle=orthogonalEdgeStyle;rounded=0;orthogonalLoop=1;jettySize=auto;html=1;exitX=0;exitY=0.5;exitDx=0;exitDy=0;entryX=0.5;entryY=0;entryDx=0;entryDy=0;curved=1;" parent="1" source="_BTrtU_r2olgrIHIZXSj-23" target="_BTrtU_r2olgrIHIZXSj-22" edge="1">
          <mxGeometry relative="1" as="geometry" />
        </mxCell>
        <mxCell id="_BTrtU_r2olgrIHIZXSj-23" value="7" style="ellipse;whiteSpace=wrap;html=1;aspect=fixed;fillColor=#fff2cc;strokeColor=#d6b656;" parent="1" vertex="1">
          <mxGeometry x="496" y="450" width="30" height="30" as="geometry" />
        </mxCell>
        <mxCell id="_BTrtU_r2olgrIHIZXSj-26" value="9" style="ellipse;whiteSpace=wrap;html=1;aspect=fixed;fillColor=#fff2cc;strokeColor=#d6b656;" parent="1" vertex="1">
          <mxGeometry x="526" y="490" width="30" height="30" as="geometry" />
        </mxCell>
        <mxCell id="_BTrtU_r2olgrIHIZXSj-1" value="5" style="rounded=1;whiteSpace=wrap;html=1;fillColor=#ffe6cc;strokeColor=#d79b00;container=0;" parent="1" vertex="1">
          <mxGeometry x="250" y="468" width="30" height="30" as="geometry" />
        </mxCell>
        <mxCell id="_BTrtU_r2olgrIHIZXSj-2" value="7" style="rounded=1;whiteSpace=wrap;html=1;fillColor=#ffe6cc;strokeColor=#d79b00;container=0;" parent="1" vertex="1">
          <mxGeometry x="280" y="468" width="30" height="30" as="geometry" />
        </mxCell>
        <mxCell id="_BTrtU_r2olgrIHIZXSj-32" style="edgeStyle=orthogonalEdgeStyle;rounded=0;orthogonalLoop=1;jettySize=auto;html=1;exitX=1;exitY=0.5;exitDx=0;exitDy=0;entryX=0.367;entryY=0.114;entryDx=0;entryDy=0;entryPerimeter=0;curved=1;" parent="1" source="_BTrtU_r2olgrIHIZXSj-23" target="_BTrtU_r2olgrIHIZXSj-26" edge="1">
          <mxGeometry relative="1" as="geometry" />
        </mxCell>
        <mxCell id="_jaxaXw8h2BjrPYEJbUO-1" value="5" style="rounded=1;whiteSpace=wrap;html=1;fillColor=#ffe6cc;strokeColor=#d79b00;container=0;" vertex="1" parent="1">
          <mxGeometry x="346" y="620" width="30" height="30" as="geometry" />
        </mxCell>
        <mxCell id="_jaxaXw8h2BjrPYEJbUO-7" style="edgeStyle=orthogonalEdgeStyle;rounded=0;orthogonalLoop=1;jettySize=auto;html=1;exitX=0;exitY=1;exitDx=0;exitDy=0;entryX=0.5;entryY=0;entryDx=0;entryDy=0;curved=1;" edge="1" parent="1" source="_jaxaXw8h2BjrPYEJbUO-2" target="_jaxaXw8h2BjrPYEJbUO-4">
          <mxGeometry relative="1" as="geometry" />
        </mxCell>
        <mxCell id="_jaxaXw8h2BjrPYEJbUO-8" style="edgeStyle=orthogonalEdgeStyle;rounded=0;orthogonalLoop=1;jettySize=auto;html=1;exitX=1;exitY=0.5;exitDx=0;exitDy=0;curved=1;" edge="1" parent="1" source="_jaxaXw8h2BjrPYEJbUO-2" target="_jaxaXw8h2BjrPYEJbUO-5">
          <mxGeometry relative="1" as="geometry" />
        </mxCell>
        <mxCell id="_jaxaXw8h2BjrPYEJbUO-2" value="7" style="rounded=1;whiteSpace=wrap;html=1;fillColor=#ffe6cc;strokeColor=#d79b00;container=0;" vertex="1" parent="1">
          <mxGeometry x="376" y="620" width="30" height="30" as="geometry" />
        </mxCell>
        <mxCell id="_jaxaXw8h2BjrPYEJbUO-3" value="1" style="ellipse;whiteSpace=wrap;html=1;aspect=fixed;fillColor=#fff2cc;strokeColor=#d6b656;" vertex="1" parent="1">
          <mxGeometry x="296" y="680" width="30" height="30" as="geometry" />
        </mxCell>
        <mxCell id="_jaxaXw8h2BjrPYEJbUO-4" value="6" style="ellipse;whiteSpace=wrap;html=1;aspect=fixed;fillColor=#fff2cc;strokeColor=#d6b656;" vertex="1" parent="1">
          <mxGeometry x="356" y="680" width="30" height="30" as="geometry" />
        </mxCell>
        <mxCell id="_jaxaXw8h2BjrPYEJbUO-5" value="8" style="ellipse;whiteSpace=wrap;html=1;aspect=fixed;fillColor=#fff2cc;strokeColor=#d6b656;" vertex="1" parent="1">
          <mxGeometry x="426" y="680" width="30" height="30" as="geometry" />
        </mxCell>
        <mxCell id="_jaxaXw8h2BjrPYEJbUO-6" style="edgeStyle=orthogonalEdgeStyle;rounded=0;orthogonalLoop=1;jettySize=auto;html=1;exitX=0;exitY=0.5;exitDx=0;exitDy=0;entryX=0.71;entryY=-0.019;entryDx=0;entryDy=0;entryPerimeter=0;curved=1;" edge="1" parent="1" source="_jaxaXw8h2BjrPYEJbUO-1" target="_jaxaXw8h2BjrPYEJbUO-3">
          <mxGeometry relative="1" as="geometry" />
        </mxCell>
        <mxCell id="_jaxaXw8h2BjrPYEJbUO-11" value="" style="edgeStyle=orthogonalEdgeStyle;rounded=0;orthogonalLoop=1;jettySize=auto;html=1;" edge="1" parent="1" source="_jaxaXw8h2BjrPYEJbUO-9" target="_jaxaXw8h2BjrPYEJbUO-10">
          <mxGeometry relative="1" as="geometry" />
        </mxCell>
        <mxCell id="_jaxaXw8h2BjrPYEJbUO-9" value="查找8" style="text;html=1;align=center;verticalAlign=middle;whiteSpace=wrap;rounded=0;" vertex="1" parent="1">
          <mxGeometry x="270" y="570" width="60" height="30" as="geometry" />
        </mxCell>
        <mxCell id="_jaxaXw8h2BjrPYEJbUO-13" value="" style="edgeStyle=orthogonalEdgeStyle;rounded=0;orthogonalLoop=1;jettySize=auto;html=1;" edge="1" parent="1" source="_jaxaXw8h2BjrPYEJbUO-10" target="_jaxaXw8h2BjrPYEJbUO-12">
          <mxGeometry relative="1" as="geometry" />
        </mxCell>
        <mxCell id="_jaxaXw8h2BjrPYEJbUO-10" value="8&amp;lt;5 ?" style="whiteSpace=wrap;html=1;" vertex="1" parent="1">
          <mxGeometry x="357" y="572.5" width="56" height="25" as="geometry" />
        </mxCell>
        <mxCell id="_jaxaXw8h2BjrPYEJbUO-12" value="8&amp;lt;7 ?" style="whiteSpace=wrap;html=1;" vertex="1" parent="1">
          <mxGeometry x="444" y="572.5" width="56" height="25" as="geometry" />
        </mxCell>
        <mxCell id="_jaxaXw8h2BjrPYEJbUO-17" style="edgeStyle=orthogonalEdgeStyle;rounded=0;orthogonalLoop=1;jettySize=auto;html=1;exitX=0;exitY=1;exitDx=0;exitDy=0;curved=1;" edge="1" parent="1" source="_jaxaXw8h2BjrPYEJbUO-14" target="_jaxaXw8h2BjrPYEJbUO-15">
          <mxGeometry relative="1" as="geometry" />
        </mxCell>
        <mxCell id="_jaxaXw8h2BjrPYEJbUO-18" style="edgeStyle=orthogonalEdgeStyle;rounded=0;orthogonalLoop=1;jettySize=auto;html=1;exitX=1;exitY=0.5;exitDx=0;exitDy=0;curved=1;" edge="1" parent="1" source="_jaxaXw8h2BjrPYEJbUO-14" target="_jaxaXw8h2BjrPYEJbUO-16">
          <mxGeometry relative="1" as="geometry" />
        </mxCell>
        <mxCell id="_jaxaXw8h2BjrPYEJbUO-14" value="&lt;font color=&quot;#ffffff&quot;&gt;2&lt;/font&gt;" style="ellipse;whiteSpace=wrap;html=1;aspect=fixed;fillColor=#0B0C0D;strokeColor=#d6b656;" vertex="1" parent="1">
          <mxGeometry x="258" y="820" width="30" height="30" as="geometry" />
        </mxCell>
        <mxCell id="_jaxaXw8h2BjrPYEJbUO-23" style="edgeStyle=orthogonalEdgeStyle;rounded=0;orthogonalLoop=1;jettySize=auto;html=1;exitX=0;exitY=1;exitDx=0;exitDy=0;entryX=0.5;entryY=0;entryDx=0;entryDy=0;curved=1;" edge="1" parent="1" source="_jaxaXw8h2BjrPYEJbUO-15" target="_jaxaXw8h2BjrPYEJbUO-19">
          <mxGeometry relative="1" as="geometry" />
        </mxCell>
        <mxCell id="_jaxaXw8h2BjrPYEJbUO-15" value="&lt;font color=&quot;#ffffff&quot;&gt;1&lt;/font&gt;" style="ellipse;whiteSpace=wrap;html=1;aspect=fixed;fillColor=#a20025;strokeColor=#6F0000;fontColor=#ffffff;" vertex="1" parent="1">
          <mxGeometry x="223" y="870" width="30" height="30" as="geometry" />
        </mxCell>
        <mxCell id="_jaxaXw8h2BjrPYEJbUO-25" style="edgeStyle=orthogonalEdgeStyle;rounded=0;orthogonalLoop=1;jettySize=auto;html=1;exitX=0;exitY=1;exitDx=0;exitDy=0;entryX=0.5;entryY=0;entryDx=0;entryDy=0;curved=1;" edge="1" parent="1" source="_jaxaXw8h2BjrPYEJbUO-16" target="_jaxaXw8h2BjrPYEJbUO-21">
          <mxGeometry relative="1" as="geometry" />
        </mxCell>
        <mxCell id="_jaxaXw8h2BjrPYEJbUO-16" value="&lt;font color=&quot;#ffffff&quot;&gt;5&lt;/font&gt;" style="ellipse;whiteSpace=wrap;html=1;aspect=fixed;fillColor=#a20025;strokeColor=#6F0000;fontColor=#ffffff;" vertex="1" parent="1">
          <mxGeometry x="307" y="870" width="30" height="30" as="geometry" />
        </mxCell>
        <mxCell id="_jaxaXw8h2BjrPYEJbUO-19" value="&lt;font color=&quot;#ffffff&quot;&gt;Null&lt;/font&gt;" style="ellipse;whiteSpace=wrap;html=1;aspect=fixed;fillColor=#0B0C0D;strokeColor=#d6b656;" vertex="1" parent="1">
          <mxGeometry x="193" y="920" width="30" height="30" as="geometry" />
        </mxCell>
        <mxCell id="_jaxaXw8h2BjrPYEJbUO-20" value="&lt;font color=&quot;#ffffff&quot;&gt;Null&lt;/font&gt;" style="ellipse;whiteSpace=wrap;html=1;aspect=fixed;fillColor=#0B0C0D;strokeColor=#d6b656;" vertex="1" parent="1">
          <mxGeometry x="229" y="920" width="30" height="30" as="geometry" />
        </mxCell>
        <mxCell id="_jaxaXw8h2BjrPYEJbUO-21" value="&lt;font color=&quot;#ffffff&quot;&gt;Null&lt;/font&gt;" style="ellipse;whiteSpace=wrap;html=1;aspect=fixed;fillColor=#0B0C0D;strokeColor=#d6b656;" vertex="1" parent="1">
          <mxGeometry x="291" y="920" width="30" height="30" as="geometry" />
        </mxCell>
        <mxCell id="_jaxaXw8h2BjrPYEJbUO-22" value="&lt;font color=&quot;#ffffff&quot;&gt;Null&lt;/font&gt;" style="ellipse;whiteSpace=wrap;html=1;aspect=fixed;fillColor=#0B0C0D;strokeColor=#d6b656;" vertex="1" parent="1">
          <mxGeometry x="327" y="920" width="30" height="30" as="geometry" />
        </mxCell>
        <mxCell id="_jaxaXw8h2BjrPYEJbUO-24" style="edgeStyle=orthogonalEdgeStyle;rounded=0;orthogonalLoop=1;jettySize=auto;html=1;exitX=1;exitY=1;exitDx=0;exitDy=0;entryX=0.738;entryY=0.019;entryDx=0;entryDy=0;entryPerimeter=0;curved=1;" edge="1" parent="1" source="_jaxaXw8h2BjrPYEJbUO-15" target="_jaxaXw8h2BjrPYEJbUO-20">
          <mxGeometry relative="1" as="geometry" />
        </mxCell>
        <mxCell id="_jaxaXw8h2BjrPYEJbUO-26" style="edgeStyle=orthogonalEdgeStyle;rounded=0;orthogonalLoop=1;jettySize=auto;html=1;exitX=1;exitY=0.5;exitDx=0;exitDy=0;entryX=0.729;entryY=0.076;entryDx=0;entryDy=0;entryPerimeter=0;curved=1;" edge="1" parent="1" source="_jaxaXw8h2BjrPYEJbUO-16" target="_jaxaXw8h2BjrPYEJbUO-22">
          <mxGeometry relative="1" as="geometry" />
        </mxCell>
        <mxCell id="_jaxaXw8h2BjrPYEJbUO-27" style="edgeStyle=orthogonalEdgeStyle;rounded=0;orthogonalLoop=1;jettySize=auto;html=1;exitX=0;exitY=1;exitDx=0;exitDy=0;curved=1;" edge="1" parent="1" source="_jaxaXw8h2BjrPYEJbUO-29" target="_jaxaXw8h2BjrPYEJbUO-31">
          <mxGeometry relative="1" as="geometry" />
        </mxCell>
        <mxCell id="_jaxaXw8h2BjrPYEJbUO-28" style="edgeStyle=orthogonalEdgeStyle;rounded=0;orthogonalLoop=1;jettySize=auto;html=1;exitX=1;exitY=0.5;exitDx=0;exitDy=0;curved=1;" edge="1" parent="1" source="_jaxaXw8h2BjrPYEJbUO-29" target="_jaxaXw8h2BjrPYEJbUO-33">
          <mxGeometry relative="1" as="geometry" />
        </mxCell>
        <mxCell id="_jaxaXw8h2BjrPYEJbUO-29" value="&lt;font color=&quot;#ffffff&quot;&gt;2&lt;/font&gt;" style="ellipse;whiteSpace=wrap;html=1;aspect=fixed;fillColor=#0B0C0D;strokeColor=#d6b656;" vertex="1" parent="1">
          <mxGeometry x="585" y="820" width="30" height="30" as="geometry" />
        </mxCell>
        <mxCell id="_jaxaXw8h2BjrPYEJbUO-30" style="edgeStyle=orthogonalEdgeStyle;rounded=0;orthogonalLoop=1;jettySize=auto;html=1;exitX=0;exitY=1;exitDx=0;exitDy=0;entryX=0.5;entryY=0;entryDx=0;entryDy=0;curved=1;" edge="1" parent="1" source="_jaxaXw8h2BjrPYEJbUO-31" target="_jaxaXw8h2BjrPYEJbUO-34">
          <mxGeometry relative="1" as="geometry" />
        </mxCell>
        <mxCell id="_jaxaXw8h2BjrPYEJbUO-31" value="&lt;font color=&quot;#ffffff&quot;&gt;1&lt;/font&gt;" style="ellipse;whiteSpace=wrap;html=1;aspect=fixed;fillColor=#0B0C0D;strokeColor=#6F0000;fontColor=#ffffff;" vertex="1" parent="1">
          <mxGeometry x="550" y="870" width="30" height="30" as="geometry" />
        </mxCell>
        <mxCell id="_jaxaXw8h2BjrPYEJbUO-32" style="edgeStyle=orthogonalEdgeStyle;rounded=0;orthogonalLoop=1;jettySize=auto;html=1;exitX=0;exitY=1;exitDx=0;exitDy=0;entryX=0.5;entryY=0;entryDx=0;entryDy=0;curved=1;" edge="1" parent="1" source="_jaxaXw8h2BjrPYEJbUO-33" target="_jaxaXw8h2BjrPYEJbUO-36">
          <mxGeometry relative="1" as="geometry" />
        </mxCell>
        <mxCell id="_jaxaXw8h2BjrPYEJbUO-33" value="&lt;font color=&quot;#ffffff&quot;&gt;5&lt;/font&gt;" style="ellipse;whiteSpace=wrap;html=1;aspect=fixed;fillColor=#0B0C0D;strokeColor=#6F0000;fontColor=#ffffff;" vertex="1" parent="1">
          <mxGeometry x="634" y="870" width="30" height="30" as="geometry" />
        </mxCell>
        <mxCell id="_jaxaXw8h2BjrPYEJbUO-34" value="&lt;font color=&quot;#ffffff&quot;&gt;Null&lt;/font&gt;" style="ellipse;whiteSpace=wrap;html=1;aspect=fixed;fillColor=#0B0C0D;strokeColor=#d6b656;" vertex="1" parent="1">
          <mxGeometry x="520" y="920" width="30" height="30" as="geometry" />
        </mxCell>
        <mxCell id="_jaxaXw8h2BjrPYEJbUO-35" value="&lt;font color=&quot;#ffffff&quot;&gt;Null&lt;/font&gt;" style="ellipse;whiteSpace=wrap;html=1;aspect=fixed;fillColor=#0B0C0D;strokeColor=#d6b656;" vertex="1" parent="1">
          <mxGeometry x="556" y="920" width="30" height="30" as="geometry" />
        </mxCell>
        <mxCell id="_jaxaXw8h2BjrPYEJbUO-36" value="&lt;font color=&quot;#ffffff&quot;&gt;Null&lt;/font&gt;" style="ellipse;whiteSpace=wrap;html=1;aspect=fixed;fillColor=#0B0C0D;strokeColor=#d6b656;" vertex="1" parent="1">
          <mxGeometry x="618" y="920" width="30" height="30" as="geometry" />
        </mxCell>
        <mxCell id="_jaxaXw8h2BjrPYEJbUO-37" value="&lt;font color=&quot;#ffffff&quot;&gt;Null&lt;/font&gt;" style="ellipse;whiteSpace=wrap;html=1;aspect=fixed;fillColor=#0B0C0D;strokeColor=#d6b656;" vertex="1" parent="1">
          <mxGeometry x="694" y="970" width="30" height="30" as="geometry" />
        </mxCell>
        <mxCell id="_jaxaXw8h2BjrPYEJbUO-38" style="edgeStyle=orthogonalEdgeStyle;rounded=0;orthogonalLoop=1;jettySize=auto;html=1;exitX=1;exitY=1;exitDx=0;exitDy=0;entryX=0.738;entryY=0.019;entryDx=0;entryDy=0;entryPerimeter=0;curved=1;" edge="1" parent="1" source="_jaxaXw8h2BjrPYEJbUO-31" target="_jaxaXw8h2BjrPYEJbUO-35">
          <mxGeometry relative="1" as="geometry" />
        </mxCell>
        <mxCell id="_jaxaXw8h2BjrPYEJbUO-39" style="edgeStyle=orthogonalEdgeStyle;rounded=0;orthogonalLoop=1;jettySize=auto;html=1;exitX=1;exitY=0.5;exitDx=0;exitDy=0;entryX=0.176;entryY=-0.019;entryDx=0;entryDy=0;entryPerimeter=0;curved=1;" edge="1" parent="1" source="_jaxaXw8h2BjrPYEJbUO-33" target="_jaxaXw8h2BjrPYEJbUO-40">
          <mxGeometry relative="1" as="geometry" />
        </mxCell>
        <mxCell id="_jaxaXw8h2BjrPYEJbUO-42" style="edgeStyle=orthogonalEdgeStyle;rounded=0;orthogonalLoop=1;jettySize=auto;html=1;exitX=0;exitY=1;exitDx=0;exitDy=0;entryX=0.5;entryY=0;entryDx=0;entryDy=0;curved=1;" edge="1" parent="1" source="_jaxaXw8h2BjrPYEJbUO-40" target="_jaxaXw8h2BjrPYEJbUO-41">
          <mxGeometry relative="1" as="geometry" />
        </mxCell>
        <mxCell id="_jaxaXw8h2BjrPYEJbUO-43" style="edgeStyle=orthogonalEdgeStyle;rounded=0;orthogonalLoop=1;jettySize=auto;html=1;exitX=1;exitY=0.5;exitDx=0;exitDy=0;curved=1;" edge="1" parent="1" source="_jaxaXw8h2BjrPYEJbUO-40" target="_jaxaXw8h2BjrPYEJbUO-37">
          <mxGeometry relative="1" as="geometry" />
        </mxCell>
        <mxCell id="_jaxaXw8h2BjrPYEJbUO-40" value="&lt;font color=&quot;#ffffff&quot;&gt;6&lt;/font&gt;" style="ellipse;whiteSpace=wrap;html=1;aspect=fixed;fillColor=#a20025;strokeColor=#6F0000;fontColor=#ffffff;" vertex="1" parent="1">
          <mxGeometry x="664" y="920" width="30" height="30" as="geometry" />
        </mxCell>
        <mxCell id="_jaxaXw8h2BjrPYEJbUO-41" value="&lt;font color=&quot;#ffffff&quot;&gt;Null&lt;/font&gt;" style="ellipse;whiteSpace=wrap;html=1;aspect=fixed;fillColor=#0B0C0D;strokeColor=#d6b656;" vertex="1" parent="1">
          <mxGeometry x="648" y="970" width="30" height="30" as="geometry" />
        </mxCell>
        <mxCell id="_jaxaXw8h2BjrPYEJbUO-44" value="" style="shape=flexArrow;endArrow=classic;html=1;rounded=0;" edge="1" parent="1">
          <mxGeometry width="50" height="50" relative="1" as="geometry">
            <mxPoint x="401" y="899.43" as="sourcePoint" />
            <mxPoint x="461" y="899.43" as="targetPoint" />
          </mxGeometry>
        </mxCell>
        <mxCell id="_jaxaXw8h2BjrPYEJbUO-45" value="插入6" style="text;html=1;align=center;verticalAlign=middle;whiteSpace=wrap;rounded=0;" vertex="1" parent="1">
          <mxGeometry x="396" y="850" width="60" height="30" as="geometry" />
        </mxCell>
      </root>
    </mxGraphModel>
  </diagram>
</mxfile>
